<svg width="23" height="22" viewBox="0 0 23 22" fill="none" xmlns="http://www.w3.org/2000/svg">
<path d="M6.56805 20.2727C6.96969 20.2727 7.29529 19.9471 7.29529 19.5454C7.29529 19.1437 6.96969 18.8181 6.56805 18.8181C6.16641 18.8181 5.84082 19.1437 5.84082 19.5454C5.84082 19.9471 6.16641 20.2727 6.56805 20.2727Z" stroke="#030D15" stroke-width="1.5" stroke-linecap="round" stroke-linejoin="round"/>
<path d="M14.5681 20.2727C14.9698 20.2727 15.2954 19.9471 15.2954 19.5454C15.2954 19.1437 14.9698 18.8181 14.5681 18.8181C14.1664 18.8181 13.8408 19.1437 13.8408 19.5454C13.8408 19.9471 14.1664 20.2727 14.5681 20.2727Z" stroke="#030D15" stroke-width="1.5" stroke-linecap="round" stroke-linejoin="round"/>
<path d="M0.75 4.99976H3.65911L5.60822 14.7379C5.67472 15.0728 5.85688 15.3735 6.1228 15.5876C6.38872 15.8017 6.72146 15.9154 7.06278 15.9088H14.1319C14.4732 15.9154 14.806 15.8017 15.0719 15.5876C15.3378 15.3735 15.52 15.0728 15.5865 14.7379L16.7501 8.63612H4.38639" stroke="#030D15" stroke-width="1.5" stroke-linecap="round" stroke-linejoin="round"/>
<circle cx="16.75" cy="8" r="6" fill="#C72535"/>
<path d="M18.9 9.2C18.9 9.73333 18.7133 10.1767 18.34 10.53C17.9667 10.8833 17.44 11.06 16.76 11.06C16.1333 11.06 15.59 10.95 15.13 10.73V9.94C15.6233 10.2 16.16 10.33 16.74 10.33C17.1667 10.33 17.4967 10.22 17.73 10C17.97 9.78 18.09 9.49333 18.09 9.14C18.09 8.78667 17.9567 8.51667 17.69 8.33C17.43 8.13667 17.0533 8.04 16.56 8.04H16.14V7.35H16.56C16.9333 7.35 17.2467 7.24667 17.5 7.04C17.76 6.82667 17.89 6.54333 17.89 6.19C17.89 5.83667 17.78 5.57 17.56 5.39C17.34 5.21 17.0367 5.12 16.65 5.12C16.19 5.12 15.75 5.25667 15.33 5.53V4.76C15.7167 4.51333 16.1633 4.39 16.67 4.39C17.3167 4.39 17.8167 4.55667 18.17 4.89C18.53 5.21667 18.71 5.62333 18.71 6.11C18.71 6.46333 18.62 6.78 18.44 7.06C18.2667 7.34 18.0067 7.55 17.66 7.69C18.04 7.77667 18.34 7.95333 18.56 8.22C18.7867 8.48 18.9 8.80667 18.9 9.2Z" fill="white"/>
</svg>
