<svg width="176" height="17" viewBox="0 0 176 17" fill="none" xmlns="http://www.w3.org/2000/svg">
<g opacity="0.6">
<path d="M8.75 0.5H6.5C5.50544 0.5 4.55161 0.895088 3.84835 1.59835C3.14509 2.30161 2.75 3.25544 2.75 4.25V6.5H0.5V9.5H2.75V15.5H5.75V9.5H8L8.75 6.5H5.75V4.25C5.75 4.05109 5.82902 3.86032 5.96967 3.71967C6.11032 3.57902 6.30109 3.5 6.5 3.5H8.75V0.5Z" stroke="white" stroke-linecap="round" stroke-linejoin="round"/>
<path d="M45 0.5H37.5C35.4289 0.5 33.75 2.17893 33.75 4.25V11.75C33.75 13.8211 35.4289 15.5 37.5 15.5H45C47.0711 15.5 48.75 13.8211 48.75 11.75V4.25C48.75 2.17893 47.0711 0.5 45 0.5Z" stroke="white" stroke-linecap="round" stroke-linejoin="round"/>
<path d="M44.25 7.52647C44.3426 8.1507 44.236 8.78823 43.9453 9.34837C43.6547 9.90852 43.1949 10.3628 42.6312 10.6465C42.0676 10.9302 41.4289 11.0289 40.8059 10.9287C40.1829 10.8284 39.6073 10.5343 39.1612 10.088C38.715 9.64182 38.4208 9.06625 38.3206 8.4432C38.2203 7.82015 38.3191 7.18136 38.6028 6.61767C38.8865 6.05399 39.3407 5.59412 39.9008 5.30347C40.4609 5.01282 41.0983 4.9062 41.7225 4.99876C42.3592 5.09318 42.9487 5.38989 43.4038 5.84506C43.8589 6.30023 44.1556 6.88972 44.25 7.52647Z" stroke="white" stroke-linecap="round" stroke-linejoin="round"/>
<path d="M45.375 3.87354H45.3824" stroke="white" stroke-linecap="round" stroke-linejoin="round"/>
<path d="M92.1406 0.508406C91.3401 1.07307 90.4538 1.50495 89.5157 1.78741C89.0123 1.20852 88.3432 0.798223 87.5989 0.612002C86.8547 0.425781 86.0712 0.472624 85.3545 0.746195C84.6377 1.01977 84.0223 1.50686 83.5914 2.14161C83.1605 2.77636 82.9349 3.52813 82.9452 4.29525V5.1312C81.4761 5.1693 80.0204 4.84348 78.7078 4.18277C77.3951 3.52207 76.2662 2.54698 75.4217 1.34435C75.4217 1.34435 72.0779 8.86789 79.6014 12.2117C77.8798 13.3803 75.8289 13.9663 73.7498 13.8836C81.2733 18.0633 90.4687 13.8836 90.4687 4.27018C90.468 4.03733 90.4456 3.80505 90.4019 3.57634C91.255 2.73495 91.8571 1.67264 92.1406 0.508406V0.508406Z" stroke="white" stroke-linecap="round" stroke-linejoin="round"/>
<path d="M127.641 5.99902C128.834 5.99902 129.979 6.47315 130.823 7.31711C131.667 8.16107 132.141 9.30571 132.141 10.4992V15.7495H129.141V10.4992C129.141 10.1014 128.983 9.71985 128.701 9.43854C128.42 9.15722 128.039 8.99917 127.641 8.99917C127.243 8.99917 126.861 9.15722 126.58 9.43854C126.299 9.71985 126.141 10.1014 126.141 10.4992V15.7495H123.141V10.4992C123.141 9.30571 123.615 8.16107 124.459 7.31711C125.303 6.47315 126.447 5.99902 127.641 5.99902V5.99902Z" stroke="white" stroke-linecap="round" stroke-linejoin="round"/>
<path d="M120.141 6.74902H117.141V15.7495H120.141V6.74902Z" stroke="white" stroke-linecap="round" stroke-linejoin="round"/>
<path d="M118.641 4.49902C119.469 4.49902 120.141 3.82745 120.141 2.99902C120.141 2.1706 119.469 1.49902 118.641 1.49902C117.812 1.49902 117.141 2.1706 117.141 2.99902C117.141 3.82745 117.812 4.49902 118.641 4.49902Z" stroke="white" stroke-linecap="round" stroke-linejoin="round"/>
<path d="M174.764 4.47802C174.667 4.08973 174.469 3.73395 174.19 3.44664C173.911 3.15933 173.562 2.95065 173.177 2.84168C171.769 2.49805 166.141 2.49805 166.141 2.49805C166.141 2.49805 160.512 2.49805 159.105 2.87441C158.719 2.98337 158.37 3.19205 158.091 3.47937C157.813 3.76668 157.615 4.12245 157.517 4.51075C157.26 5.93891 157.134 7.38769 157.141 8.83887C157.132 10.301 157.258 11.7608 157.517 13.1997C157.625 13.576 157.827 13.9182 158.105 14.1934C158.383 14.4686 158.727 14.6674 159.105 14.7706C160.512 15.147 166.141 15.147 166.141 15.147C166.141 15.147 171.769 15.147 173.177 14.7706C173.562 14.6616 173.911 14.453 174.19 14.1657C174.469 13.8783 174.667 13.5226 174.764 13.1343C175.019 11.7169 175.145 10.2791 175.14 8.83887C175.149 7.37676 175.023 5.91694 174.764 4.47802V4.47802Z" stroke="white" stroke-linecap="round" stroke-linejoin="round"/>
<path d="M164.3 11.5142L169.004 8.83887L164.3 6.16357V11.5142Z" stroke="white" stroke-linecap="round" stroke-linejoin="round"/>
</g>
</svg>
