<svg width="67" height="66" viewBox="0 0 67 66" fill="none" xmlns="http://www.w3.org/2000/svg">
<path d="M5.08699 64.3756V65.8472H0V58.2305H1.71921V64.3756H5.08699Z" fill="#247CC0"/>
<path d="M6.19415 58.2305H7.91336V65.8472H6.19415V58.2305Z" fill="#247CC0"/>
<path d="M14.778 65.8472C14.2835 64.976 13.7536 64.1166 13.1883 63.2573C12.6113 62.4096 12.0108 61.6091 11.3631 60.8439V65.8354H9.66748V58.2305H11.0688C11.316 58.4777 11.5751 58.772 11.8695 59.1252C12.1639 59.4783 12.4583 59.8551 12.7644 60.2553C13.0706 60.6556 13.3767 61.0676 13.6711 61.5032C13.9773 61.927 14.2599 62.339 14.519 62.7393V58.2305H16.2264V65.8472H14.778Z" fill="#247CC0"/>
<path d="M22.479 65.8471C22.326 65.5999 22.1375 65.3291 21.9374 65.0466C21.7254 64.7641 21.5017 64.4698 21.2544 64.1755C21.0071 63.8811 20.7598 63.5986 20.489 63.3396C20.2299 63.0689 19.9591 62.8334 19.7 62.6333V65.8589H17.9808V58.2305H19.7V61.0911C20.1357 60.632 20.5949 60.1376 21.0424 59.6431C21.5017 59.1369 21.9138 58.666 22.3024 58.2305H24.3396C23.8214 58.8426 23.3033 59.443 22.7734 60.0081C22.2435 60.5731 21.6901 61.15 21.1131 61.7268C21.7254 62.233 22.3142 62.8334 22.8794 63.5398C23.4446 64.2343 23.9863 65.0113 24.5162 65.8471H22.479Z" fill="#247CC0"/>
<path d="M25.5061 65.8472V58.2305H30.652V59.6667H27.2253V61.1618H30.2752V62.5745H27.2253V64.4109H30.9111V65.8472H25.5061Z" fill="#247CC0"/>
<path d="M38.8475 62.0326C38.8475 62.6921 38.7415 63.2691 38.5413 63.7637C38.3411 64.2583 38.0467 64.6587 37.6699 64.9884C37.2931 65.3064 36.8339 65.5537 36.2922 65.7185C35.7505 65.8834 35.1382 65.9658 34.467 65.9658C34.1608 65.9658 33.7958 65.954 33.3837 65.9305C32.9715 65.9069 32.5711 65.8481 32.1708 65.7656V58.3349C32.5711 58.2642 32.9833 58.2171 33.4072 58.1818C33.8311 58.1583 34.2079 58.1465 34.5141 58.1465C35.1617 58.1465 35.7623 58.2171 36.2922 58.3702C36.8221 58.5115 37.2813 58.7471 37.6582 59.065C38.035 59.383 38.3294 59.7834 38.5413 60.278C38.7415 60.749 38.8475 61.3378 38.8475 62.0326ZM33.89 64.4467C33.9724 64.4585 34.0666 64.4585 34.1726 64.4585C34.2786 64.4585 34.4081 64.4585 34.5494 64.4585C35.409 64.4585 36.0449 64.2465 36.457 63.8108C36.8692 63.3751 37.0812 62.7863 37.0812 62.0208C37.0812 61.2201 36.881 60.6195 36.4924 60.2073C36.092 59.7951 35.4679 59.5949 34.6083 59.5949C34.4906 59.5949 34.3728 59.5949 34.2433 59.5949C34.1137 59.5949 33.996 59.6067 33.89 59.6185V64.4467Z" fill="#247CC0"/>
<path d="M45.6766 58.2305V59.6902H43.3804V65.8472H41.6612V59.6902H39.365V58.2305H45.6766Z" fill="#247CC0"/>
<path d="M46.7837 65.8472V58.2305H51.9296V59.6667H48.5029V61.1618H51.5528V62.5745H48.5029V64.4109H52.1886V65.8472H46.7837Z" fill="#247CC0"/>
<path d="M56.9221 66.0015C55.6856 66.0015 54.7436 65.6599 54.0842 64.9651C53.4365 64.2703 53.1068 63.2928 53.1068 62.0327C53.1068 61.3968 53.201 60.8433 53.4012 60.3486C53.6014 59.854 53.8722 59.4301 54.2137 59.1003C54.5552 58.7588 54.9673 58.4997 55.4501 58.3231C55.9212 58.1464 56.4393 58.064 57.0045 58.064C57.3224 58.064 57.6168 58.0875 57.8877 58.1346C58.1467 58.1817 58.3822 58.2406 58.5824 58.2995C58.7826 58.3584 58.9474 58.429 59.077 58.4879C59.2065 58.5586 59.3007 58.6057 59.3596 58.641L58.865 60.0307C58.6295 59.9011 58.3587 59.7951 58.0407 59.7127C57.7346 59.6303 57.3695 59.5832 56.981 59.5832C56.7219 59.5832 56.4628 59.6303 56.2038 59.7127C55.9565 59.7951 55.7327 59.9365 55.5326 60.1367C55.3324 60.3369 55.1793 60.5842 55.0615 60.8904C54.9438 61.1966 54.8849 61.5734 54.8849 62.0092C54.8849 62.3625 54.9202 62.6922 55.0027 62.9984C55.0851 63.3046 55.2029 63.5637 55.3795 63.7874C55.5561 64.0112 55.7798 64.1761 56.0507 64.3056C56.3333 64.4352 56.663 64.494 57.0634 64.494C57.3107 64.494 57.5344 64.4823 57.7346 64.4469C57.9348 64.4234 58.1114 64.3881 58.2645 64.341C58.4176 64.3056 58.5589 64.2585 58.6766 64.1996C58.7944 64.1525 58.9004 64.1054 58.9946 64.0583L59.4656 65.4362C59.2183 65.5775 58.8768 65.7188 58.4411 65.8366C58.0054 65.9426 57.4991 66.0015 56.9221 66.0015Z" fill="#247CC0"/>
<path d="M65.1769 58.2305H66.8961V65.8472H65.1769V62.6098H62.2919V65.8472H60.5726V58.2305H62.2919V61.15H65.1769V58.2305Z" fill="#247CC0"/>
<path d="M21.8436 11.1821C21.9849 10.0284 22.4559 8.96885 23.1507 8.10944L21.3962 6.28467L15.9912 9.40444C15.3671 9.7694 14.8019 10.4404 14.4487 11.1821H21.8436Z" fill="#262262"/>
<path d="M33.4425 31.4961L29.0856 18.0121C28.7206 18.0827 28.3438 18.1181 27.9552 18.1181C27.2133 18.1181 26.5068 17.9885 25.8474 17.7412L21.5964 25.9612C22.197 26.5147 22.5856 27.3155 22.5856 28.1987C22.5856 28.3165 22.5738 28.4343 22.562 28.552L32.3945 32.4854C32.6654 32.0967 33.0304 31.7552 33.4425 31.4961Z" fill="#1C75BC"/>
<path d="M19.5598 25.1834C19.7836 25.1834 19.9955 25.2069 20.2075 25.254L24.4584 17.0354C23.0571 16.0699 22.0798 14.5275 21.856 12.7495H14.0842V12.7613V18.5426L18.606 25.3364C18.9004 25.2422 19.2183 25.1834 19.5598 25.1834Z" fill="#2B3990"/>
<path d="M35.2327 31.0006C35.4918 31.0006 35.7508 31.0359 35.9981 31.083L41.2382 20.1912C40.1077 19.3787 39.3777 18.0599 39.3777 16.5527C39.3777 16.3996 39.3894 16.2348 39.4012 16.0817L33.6077 14.4097C33.0072 15.7873 31.9356 16.8942 30.5814 17.53L34.9383 31.0124C35.0325 31.0124 35.1385 31.0006 35.2327 31.0006Z" fill="#1C75BC"/>
<path d="M46.4194 20.2256C46.1721 20.4022 45.9013 20.5553 45.6069 20.6731L46.7727 25.7131C48.0444 25.8309 49.0453 26.9025 49.0453 28.1979C49.0453 28.5982 48.9511 28.9868 48.7745 29.3283L52.154 32.708C52.5544 32.0603 52.8134 31.3185 52.8134 30.659V26.6317L46.4194 20.2256Z" fill="#2EA8E0"/>
<path d="M31.7586 34.4744C31.7586 34.2978 31.7704 34.1211 31.7939 33.9445L21.9732 30.0112C21.7377 30.3174 21.4551 30.5883 21.1254 30.7885L23.2921 38.2193L27.7903 40.8101L32.2885 36.3115C31.9588 35.7816 31.7586 35.1457 31.7586 34.4744Z" fill="#2EA8E0"/>
<path d="M45.2417 26.0663L44.0759 21.0271C44.0053 21.0271 43.9229 21.0271 43.8522 21.0271C43.4401 21.0271 43.0279 20.9683 42.6511 20.8623L37.411 31.7531C37.5523 31.8709 37.6936 32.0004 37.8114 32.1299L44.0877 28.6566C44.0642 28.5035 44.0406 28.3505 44.0406 28.1856C44.0406 27.3026 44.5234 26.502 45.2417 26.0663Z" fill="#2EA8E0"/>
<path d="M51.5651 9.95703L47.5261 13.9959C48.0325 14.726 48.3386 15.6091 48.3386 16.5629C48.3386 17.5167 48.0442 18.3999 47.5261 19.1299L52.8133 24.417V12.7713C52.8133 11.8175 52.2951 10.6989 51.5651 9.95703Z" fill="#1C75BC"/>
<path d="M37.0694 37.4194C36.5395 37.7491 35.9037 37.9492 35.2325 37.9492C34.5613 37.9492 33.9254 37.7608 33.3955 37.4194L29.1917 41.6222L31.4996 42.9525C32.5712 43.5647 34.314 43.5647 35.3738 42.9525L39.9544 40.3037L37.0694 37.4194Z" fill="#5DCBEC"/>
<path d="M19.6184 31.2239C19.5948 31.2239 19.5713 31.2239 19.5595 31.2239C17.8874 31.2239 16.5332 29.8698 16.5332 28.1977C16.5332 27.4324 16.8158 26.7376 17.2869 26.196L14.0721 21.3682V30.647C14.0721 31.8833 14.9435 33.3906 16.0151 34.0029L21.3376 37.0762L19.6184 31.2239Z" fill="#1C75BC"/>
<path d="M47.6675 30.434C47.326 30.5989 46.9492 30.7049 46.537 30.7049C45.8776 30.7049 45.2888 30.4576 44.8414 30.0454L38.565 33.5193C38.6475 33.8255 38.6946 34.1434 38.6946 34.4732C38.6946 35.1444 38.5062 35.7803 38.1647 36.3102L41.3558 39.5015L50.8586 34.0139C50.9293 33.9668 51.0117 33.9197 51.0824 33.8726L47.6675 30.434Z" fill="#5DCBEC"/>
<path d="M34.1136 11.9712C34.1136 12.2891 34.0901 12.6071 34.043 12.9132L39.8365 14.5854C40.4017 13.4432 41.4262 12.5835 42.6862 12.242L41.9679 4.26963L35.8564 0.736816L31.8409 7.19009C33.2305 8.32059 34.1136 10.0399 34.1136 11.9712Z" fill="#2B3990"/>
<path d="M24.293 7.02686C25.3174 6.26133 26.5892 5.8138 27.9669 5.8138C28.8736 5.8138 29.745 6.01401 30.5222 6.36733L34.4081 0.101821C33.4307 -0.11017 32.2885 0.00760719 31.5113 0.466921L22.821 5.48404L24.293 7.02686Z" fill="#262262"/>
<path d="M50.2583 9.05148L43.6287 5.2251L44.241 12.1008C45.0417 12.1715 45.7954 12.454 46.4195 12.8896L50.2583 9.05148Z" fill="#2B3990"/>
<path d="M22.5623 28.5629L32.3948 32.4961C32.6774 32.0957 33.0307 31.7542 33.4546 31.5069L29.5922 19.5542C26.7072 21.4148 24.1049 23.6523 21.8204 26.2077C22.2915 26.7376 22.5858 27.4442 22.5858 28.2214C22.5858 28.3274 22.5741 28.4451 22.5623 28.5629Z" fill="url(#paint0_linear_1_61)"/>
<path d="M35.2329 31.002C35.492 31.002 35.7511 31.0374 35.9983 31.0845L41.2384 20.1908C40.108 19.3782 39.3779 18.0592 39.3779 16.5517C39.3779 16.3986 39.3897 16.2337 39.4015 16.0806L37.6587 15.5742C35.3154 16.3986 33.0662 17.4468 30.9584 18.6833L34.9385 31.002C35.0327 31.0138 35.1387 31.002 35.2329 31.002Z" fill="url(#paint1_linear_1_61)"/>
<path d="M45.6069 20.6852L46.7727 25.7251C48.0444 25.8429 49.0454 26.9144 49.0454 28.2097C49.0454 28.6101 48.9512 28.9987 48.7745 29.3402L52.1541 32.7197C52.5545 32.0721 52.8135 31.3302 52.8135 30.6708V26.6436L46.4194 20.2495C46.1721 20.4026 45.9013 20.5557 45.6069 20.6852Z" fill="url(#paint2_linear_1_61)"/>
<path d="M31.7592 34.4743C31.7592 34.2977 31.7709 34.1211 31.7945 33.9445L21.9737 30.0117C21.7382 30.3179 21.4556 30.5887 21.1259 30.7889L23.2926 38.2187L27.7908 40.8091L32.289 36.3112C31.9593 35.7813 31.7592 35.1455 31.7592 34.4743Z" fill="url(#paint3_linear_1_61)"/>
<path d="M37.812 32.1543L44.0883 28.6807C44.0648 28.5277 44.0412 28.3746 44.0412 28.2098C44.0412 27.3031 44.524 26.5142 45.2423 26.0667L44.0765 21.0272C44.0059 21.0272 43.9235 21.0272 43.8528 21.0272C43.4407 21.0272 43.0285 20.9683 42.6517 20.8623L37.4116 31.754C37.5529 31.8835 37.6825 32.013 37.812 32.1543Z" fill="url(#paint4_linear_1_61)"/>
<path d="M48.3391 16.5639C48.3391 17.5177 48.0447 18.4009 47.5266 19.131L52.8138 24.4185V13.5492C51.966 13.4904 51.1181 13.4668 50.2585 13.4668C49.5049 13.4668 48.7513 13.4904 48.0094 13.5375L47.5384 14.0085C48.033 14.7268 48.3391 15.61 48.3391 16.5639Z" fill="url(#paint5_linear_1_61)"/>
<path d="M35.2331 37.9484C34.5619 37.9484 33.926 37.76 33.3961 37.4185L29.1923 41.6223L31.5002 42.9529C32.5718 43.5652 34.3146 43.5652 35.3744 42.9529L39.955 40.3034L37.0582 37.4067C36.5401 37.76 35.9043 37.9484 35.2331 37.9484Z" fill="url(#paint6_linear_1_61)"/>
<path d="M19.6185 31.2237C19.595 31.2237 19.5714 31.2237 19.5597 31.2237C19.0769 31.2237 18.6176 31.106 18.2173 30.9058C17.5343 31.9657 16.8984 33.061 16.3214 34.1799L21.326 37.0771L19.6185 31.2237Z" fill="url(#paint7_linear_1_61)"/>
<path d="M46.549 30.7049C45.8896 30.7049 45.3008 30.4576 44.8533 30.0454L38.577 33.5193C38.6594 33.8255 38.7065 34.1434 38.7065 34.4732C38.7065 35.1444 38.5181 35.7803 38.1766 36.3102L41.3678 39.5015L50.8706 34.0139C50.9413 33.9668 51.0237 33.9197 51.0944 33.8726L47.6677 30.4458C47.3262 30.6107 46.9494 30.7049 46.549 30.7049Z" fill="url(#paint8_linear_1_61)"/>
<defs>
<linearGradient id="paint0_linear_1_61" x1="25.1825" y1="22.4238" x2="30.0768" y2="31.3963" gradientUnits="userSpaceOnUse">
<stop stop-color="white" stop-opacity="0.4"/>
<stop offset="1" stop-color="white" stop-opacity="0"/>
</linearGradient>
<linearGradient id="paint1_linear_1_61" x1="33.9478" y1="17.643" x2="38.8428" y2="26.616" gradientUnits="userSpaceOnUse">
<stop stop-color="white" stop-opacity="0.4"/>
<stop offset="1" stop-color="white" stop-opacity="0"/>
</linearGradient>
<linearGradient id="paint2_linear_1_61" x1="42.5764" y1="12.9368" x2="47.4704" y2="21.909" gradientUnits="userSpaceOnUse">
<stop stop-color="white" stop-opacity="0.4"/>
<stop offset="1" stop-color="white" stop-opacity="0"/>
</linearGradient>
<linearGradient id="paint3_linear_1_61" x1="21.2633" y1="24.5628" x2="26.1568" y2="33.5348" gradientUnits="userSpaceOnUse">
<stop stop-color="white" stop-opacity="0.4"/>
<stop offset="1" stop-color="white" stop-opacity="0"/>
</linearGradient>
<linearGradient id="paint4_linear_1_61" x1="35.5059" y1="16.7942" x2="40.3995" y2="25.7662" gradientUnits="userSpaceOnUse">
<stop stop-color="white" stop-opacity="0.4"/>
<stop offset="1" stop-color="white" stop-opacity="0"/>
</linearGradient>
<linearGradient id="paint5_linear_1_61" x1="47.0038" y1="10.5218" x2="51.8981" y2="19.4943" gradientUnits="userSpaceOnUse">
<stop stop-color="white" stop-opacity="0.4"/>
<stop offset="1" stop-color="white" stop-opacity="0"/>
</linearGradient>
<linearGradient id="paint6_linear_1_61" x1="24.6283" y1="22.7272" x2="29.5222" y2="31.6995" gradientUnits="userSpaceOnUse">
<stop stop-color="white" stop-opacity="0.4"/>
<stop offset="1" stop-color="white" stop-opacity="0"/>
</linearGradient>
<linearGradient id="paint7_linear_1_61" x1="15.3" y1="27.8138" x2="20.1952" y2="36.7868" gradientUnits="userSpaceOnUse">
<stop stop-color="white" stop-opacity="0.4"/>
<stop offset="1" stop-color="white" stop-opacity="0"/>
</linearGradient>
<linearGradient id="paint8_linear_1_61" x1="34.8537" y1="17.1474" x2="39.748" y2="26.1198" gradientUnits="userSpaceOnUse">
<stop stop-color="white" stop-opacity="0.4"/>
<stop offset="1" stop-color="white" stop-opacity="0"/>
</linearGradient>
</defs>
</svg>
